<?xml version="1.0" encoding="utf-8"?>
<!-- Generator: Adobe Illustrator 16.0.0, SVG Export Plug-In . SVG Version: 6.00 Build 0)  -->
<!DOCTYPE svg PUBLIC "-//W3C//DTD SVG 1.1//EN" "http://www.w3.org/Graphics/SVG/1.1/DTD/svg11.dtd">
<svg version="1.1" id="Layer_1" xmlns="http://www.w3.org/2000/svg" xmlns:xlink="http://www.w3.org/1999/xlink" x="0px" y="0px"
	 width="185px" height="188px" viewBox="0 0 185 188" enable-background="new 0 0 185 188" xml:space="preserve">
<g>
	
		<radialGradient id="SVGID_1_" cx="-206.9297" cy="138.9277" r="20.1129" gradientTransform="matrix(0.498 0 0 -0.498 120.675 119.0193)" gradientUnits="userSpaceOnUse">
		<stop  offset="0" style="stop-color:#FFCF4F"/>
		<stop  offset="1" style="stop-color:#F4C236"/>
	</radialGradient>
	<path fill="url(#SVGID_1_)" d="M8.91,61h6.791c1.607,0,3.604-1.128,4.432-2.511l5.72-9.52c0.677-1.396,0.653-3.426-0.119-4.713
		l-3.378-5.592L8.91,61z"/>
	
		<radialGradient id="SVGID_2_" cx="-218.9814" cy="149.1426" r="27.6567" gradientTransform="matrix(0.498 0 0 -0.498 120.675 119.0193)" gradientUnits="userSpaceOnUse">
		<stop  offset="0" style="stop-color:#08A960"/>
		<stop  offset="1" style="stop-color:#07914B"/>
	</radialGradient>
	<path fill="url(#SVGID_2_)" d="M16.209,33.514L1.108,58.763C0.524,60.011,1.131,61,2.629,61H8.91l13.446-22.335L16.21,28.492
		C17.039,29.87,17.039,32.13,16.209,33.514"/>
	
		<radialGradient id="SVGID_3_" cx="-209.5303" cy="188.8242" r="40.5378" gradientTransform="matrix(0.498 0 0 -0.498 120.675 119.0193)" gradientUnits="userSpaceOnUse">
		<stop  offset="0" style="stop-color:#567FC0"/>
		<stop  offset="1" style="stop-color:#557FC0"/>
	</radialGradient>
	<path fill="url(#SVGID_3_)" d="M2.629,1C1.015,1,0.375,2.133,1.205,3.511l24.529,40.745c0.772,1.288,0.795,3.317,0.119,4.713
		l5.963-9.925L8.914,1H2.629z"/>
	
		<radialGradient id="SVGID_4_" cx="-197.4658" cy="198.7871" r="33.0577" gradientTransform="matrix(0.498 0 0 -0.498 120.675 119.0193)" gradientUnits="userSpaceOnUse">
		<stop  offset="0" style="stop-color:#E14C40"/>
		<stop  offset="1" style="stop-color:#CD392D"/>
	</radialGradient>
	<path fill="url(#SVGID_4_)" d="M8.914,1l22.903,38.045l3.321-5.53c0.83-1.385,0.83-3.645,0-5.023L20.133,3.511
		C19.305,2.133,17.308,1,15.701,1H8.914z"/>
	
		<text id="title" editable="simple" transform="matrix(1 0 0 1 115.748 43.2485)" fill="#4D4D4D" enable-background="new    " font-family="'OpenSans-Semibold'" font-size="30.2907">SSU</text>
	<g id="GDG">
		<g>
			<path fill="#4D4D4D" d="M96.658,40.272"/>
			<path fill="#4D4D4D" d="M57.611,30.832h9.274v11.592c-2.52,0.864-5.284,1.293-8.308,1.293c-3.31,0-5.869-0.96-7.68-2.88
				c-1.811-1.92-2.71-4.665-2.71-8.225c0-3.467,0.987-6.164,2.969-8.096c1.981-1.936,4.753-2.887,8.322-2.887
				c1.354,0,2.627,0.122,3.825,0.379c1.207,0.253,2.255,0.572,3.148,0.961l-1.846,4.555c-1.546-0.763-3.248-1.144-5.101-1.144
				c-1.688,0-3.003,0.557-3.929,1.655c-0.932,1.104-1.389,2.674-1.389,4.726c0,2.01,0.416,3.541,1.26,4.595
				c0.831,1.057,2.036,1.575,3.616,1.575c0.864,0,1.661-0.076,2.382-0.247v-3.364h-3.832L57.611,30.832L57.611,30.832z"/>
			<path fill="#4D4D4D" d="M82.275,32.427c0-1.976-0.388-3.433-1.164-4.387c-0.778-0.946-1.969-1.424-3.555-1.424h-1.689v12.042
				h1.294c1.771,0,3.064-0.512,3.882-1.54C81.867,36.104,82.275,34.531,82.275,32.427 M88.302,32.221
				c0,3.582-0.98,6.347-2.961,8.288c-1.969,1.939-4.747,2.908-8.322,2.908h-6.953V21.923h7.436c3.444,0,6.107,0.887,7.986,2.65
				C87.368,26.332,88.302,28.886,88.302,32.221"/>
			<path fill="#4D4D4D" d="M99.578,30.832h9.283v11.592c-2.521,0.864-5.293,1.293-8.309,1.293c-3.309,0-5.871-0.96-7.682-2.88
				c-1.804-1.92-2.708-4.665-2.708-8.225c0-3.467,0.985-6.164,2.968-8.096c1.975-1.936,4.753-2.887,8.321-2.887
				c1.35,0,2.629,0.122,3.834,0.379c1.191,0.253,2.24,0.572,3.133,0.961l-1.838,4.555c-1.547-0.763-3.25-1.144-5.1-1.144
				c-1.697,0-3.006,0.557-3.938,1.655c-0.918,1.104-1.383,2.674-1.383,4.726c0,2.01,0.416,3.541,1.252,4.595
				c0.838,1.057,2.043,1.575,3.623,1.575c0.863,0,1.662-0.076,2.385-0.247v-3.364h-3.842V30.832L99.578,30.832z"/>
		</g>
	</g>
</g>
<g>
	<g>
		<path fill="#4E4E4E" d="M115.912,80.967c0,2.677-0.73,4.738-2.193,6.187c-1.462,1.447-3.518,2.171-6.166,2.171h-5.148V73.29h5.508
			c2.554,0,4.525,0.657,5.916,1.974C115.218,76.581,115.912,78.481,115.912,80.967z M111.45,81.12c0-1.469-0.289-2.559-0.866-3.268
			c-0.577-0.71-1.453-1.064-2.628-1.064h-1.251v8.982h0.958c1.306,0,2.264-0.382,2.874-1.146
			C111.145,83.86,111.45,82.692,111.45,81.12z"/>
		<path fill="#4E4E4E" d="M123.129,89.544c-2.053,0-3.646-0.55-4.783-1.65c-1.136-1.101-1.703-2.667-1.703-4.7
			c0-2.099,0.525-3.709,1.578-4.831c1.053-1.122,2.555-1.684,4.506-1.684c1.856,0,3.293,0.488,4.305,1.464
			c1.012,0.977,1.52,2.382,1.52,4.218v1.908h-7.609c0.029,0.694,0.281,1.239,0.759,1.634c0.475,0.396,1.12,0.593,1.94,0.593
			c0.748,0,1.437-0.071,2.063-0.214c0.629-0.143,1.31-0.386,2.041-0.729v3.082c-0.668,0.344-1.356,0.581-2.068,0.713
			C124.965,89.478,124.117,89.544,123.129,89.544z M122.879,79.596c-0.5,0-0.92,0.159-1.256,0.478
			c-0.338,0.318-0.537,0.817-0.594,1.497h3.656c-0.015-0.6-0.185-1.078-0.506-1.437C123.857,79.775,123.424,79.596,122.879,79.596z"
			/>
		<path fill="#4E4E4E" d="M132.852,89.324l-4.703-12.426h4.44l2.091,7.348c0.008,0.037,0.021,0.099,0.043,0.187
			c0.022,0.088,0.043,0.192,0.065,0.313c0.021,0.121,0.041,0.249,0.06,0.384c0.019,0.136,0.027,0.262,0.027,0.379h0.076
			c0-0.38,0.064-0.793,0.195-1.239l2.188-7.37h4.43l-4.701,12.426h-4.211V89.324z"/>
		<path fill="#4E4E4E" d="M146.381,89.324h-4.234V73.29h9.404v3.477h-5.17v3.06h4.768v3.477h-4.768V89.324L146.381,89.324z"/>
		<path fill="#4E4E4E" d="M158.527,89.544c-2.053,0-3.646-0.55-4.782-1.65s-1.703-2.667-1.703-4.7c0-2.099,0.524-3.709,1.578-4.831
			c1.052-1.122,2.554-1.684,4.506-1.684c1.856,0,3.292,0.488,4.306,1.464c1.012,0.977,1.519,2.382,1.519,4.218v1.908h-7.608
			c0.029,0.694,0.281,1.239,0.758,1.634c0.475,0.396,1.121,0.593,1.941,0.593c0.747,0,1.436-0.071,2.062-0.214
			c0.629-0.143,1.309-0.386,2.041-0.729v3.082c-0.668,0.344-1.356,0.581-2.067,0.713C160.364,89.478,159.516,89.544,158.527,89.544z
			 M158.277,79.596c-0.5,0-0.92,0.159-1.256,0.478c-0.338,0.318-0.537,0.817-0.595,1.497h3.657c-0.016-0.6-0.184-1.078-0.506-1.437
			C159.256,79.775,158.822,79.596,158.277,79.596z"/>
		<path fill="#4E4E4E" d="M174.541,85.508c0,1.331-0.45,2.336-1.35,3.016c-0.9,0.681-2.191,1.021-3.875,1.021
			c-0.914,0-1.709-0.05-2.385-0.148c-0.675-0.098-1.363-0.279-2.066-0.543V85.42c0.66,0.293,1.384,0.534,2.171,0.724
			s1.489,0.285,2.106,0.285c0.92,0,1.381-0.212,1.381-0.636c0-0.22-0.129-0.415-0.385-0.587c-0.259-0.172-1.008-0.506-2.248-1.004
			c-1.133-0.468-1.924-0.999-2.373-1.596c-0.449-0.596-0.676-1.351-0.676-2.265c0-1.155,0.442-2.055,1.328-2.698
			c0.885-0.644,2.137-0.965,3.755-0.965c0.813,0,1.576,0.09,2.291,0.27c0.716,0.18,1.457,0.44,2.228,0.784l-1.154,2.764
			c-0.564-0.256-1.164-0.473-1.796-0.652c-0.632-0.179-1.146-0.269-1.546-0.269c-0.696,0-1.045,0.172-1.045,0.516
			c0,0.212,0.121,0.393,0.365,0.543c0.242,0.149,0.944,0.455,2.105,0.915c0.863,0.358,1.507,0.71,1.932,1.054
			c0.426,0.344,0.736,0.747,0.937,1.212C174.441,84.277,174.541,84.843,174.541,85.508z"/>
		<path fill="#4E4E4E" d="M181.605,86.154c0.572,0,1.259-0.143,2.058-0.428v3.126c-0.573,0.249-1.119,0.427-1.64,0.532
			c-0.519,0.105-1.125,0.159-1.821,0.159c-1.431,0-2.46-0.353-3.093-1.059c-0.631-0.705-0.945-1.789-0.945-3.252V80.11h-1.491
			v-1.743l1.894-1.35l1.101-2.61h2.786v2.49h3.025v3.213h-3.025v4.837C180.452,85.753,180.837,86.154,181.605,86.154z"/>
	</g>
	<g>
		<path fill="#4E4E4E" d="M60.282,110.886H50.031v-1.841l3.9-3.921c1.151-1.181,1.915-2.017,2.291-2.509
			c0.376-0.493,0.65-0.957,0.822-1.393c0.172-0.434,0.259-0.898,0.259-1.396c0-0.683-0.205-1.222-0.616-1.613
			c-0.41-0.394-0.978-0.59-1.702-0.59c-0.579,0-1.14,0.106-1.681,0.321c-0.542,0.214-1.167,0.6-1.877,1.158L50.114,97.5
			c0.841-0.71,1.659-1.214,2.452-1.51c0.793-0.297,1.638-0.445,2.535-0.445c1.407,0,2.534,0.367,3.382,1.102
			c0.848,0.735,1.272,1.724,1.272,2.965c0,0.683-0.123,1.33-0.367,1.943c-0.245,0.614-0.621,1.247-1.127,1.898
			c-0.506,0.65-1.35,1.533-2.529,2.645l-2.627,2.543v0.104h7.179v2.141H60.282z"/>
		<path fill="#4E4E4E" d="M71.104,103.324c0,2.627-0.422,4.578-1.267,5.854c-0.845,1.276-2.136,1.914-3.874,1.914
			c-1.683,0-2.958-0.658-3.827-1.976c-0.869-1.317-1.304-3.248-1.304-5.793c0-2.669,0.422-4.636,1.268-5.901
			c0.844-1.266,2.132-1.898,3.863-1.898c1.689,0,2.969,0.662,3.838,1.986C70.67,98.834,71.104,100.771,71.104,103.324z
			 M63.293,103.324c0,2.062,0.212,3.533,0.636,4.417c0.424,0.883,1.102,1.323,2.033,1.323c0.931,0,1.612-0.447,2.043-1.345
			c0.431-0.896,0.646-2.362,0.646-4.396c0-2.027-0.215-3.495-0.646-4.401c-0.431-0.907-1.112-1.36-2.043-1.36
			c-0.931,0-1.608,0.444-2.033,1.334C63.506,99.786,63.293,101.262,63.293,103.324z"/>
		<path fill="#4E4E4E" d="M78.812,110.886h-2.431v-9.766c0-1.165,0.027-2.089,0.083-2.771c-0.159,0.164-0.354,0.348-0.584,0.547
			c-0.231,0.201-1.005,0.836-2.323,1.903l-1.22-1.541l4.448-3.497h2.028L78.812,110.886L78.812,110.886z"/>
		<path fill="#4E4E4E" d="M93.285,107.586h-2.038v3.3h-2.369v-3.3h-6.91v-1.872l6.91-9.993h2.369v9.848h2.038V107.586z
			 M88.878,105.568v-3.797c0-1.352,0.035-2.459,0.104-3.319h-0.083c-0.193,0.455-0.496,1.007-0.91,1.653l-3.755,5.463H88.878z"/>
		<path fill="#4E4E4E" d="M107.335,106.779c0,1.345-0.485,2.398-1.458,3.164c-0.973,0.767-2.314,1.148-4.023,1.148
			c-1.711,0-3.11-0.266-4.201-0.797v-2.338c0.689,0.324,1.423,0.579,2.199,0.766c0.775,0.188,1.498,0.279,2.166,0.279
			c0.979,0,1.703-0.188,2.168-0.559c0.465-0.373,0.697-0.873,0.697-1.5c0-0.565-0.214-1.045-0.641-1.438
			c-0.428-0.394-1.311-0.858-2.648-1.396c-1.379-0.56-2.352-1.196-2.917-1.914c-0.565-0.717-0.848-1.579-0.848-2.586
			c0-1.262,0.448-2.256,1.345-2.979s2.1-1.086,3.61-1.086c1.448,0,2.89,0.317,4.323,0.952l-0.785,2.018
			c-1.346-0.565-2.545-0.849-3.6-0.849c-0.801,0-1.408,0.174-1.82,0.521c-0.414,0.35-0.621,0.811-0.621,1.383
			c0,0.393,0.082,0.729,0.248,1.008c0.164,0.279,0.438,0.543,0.816,0.792c0.379,0.248,1.062,0.575,2.049,0.981
			c1.109,0.463,1.924,0.895,2.44,1.293c0.517,0.4,0.896,0.853,1.138,1.355C107.214,105.503,107.335,106.098,107.335,106.779z"/>
		<path fill="#4E4E4E" d="M113.729,111.093c-1.778,0-3.17-0.519-4.174-1.557c-1.003-1.038-1.505-2.468-1.505-4.288
			c0-1.869,0.466-3.338,1.396-4.407c0.932-1.067,2.211-1.603,3.839-1.603c1.51,0,2.702,0.457,3.579,1.375
			c0.875,0.918,1.312,2.18,1.312,3.785v1.314h-7.624c0.034,1.11,0.335,1.964,0.9,2.561s1.362,0.896,2.39,0.896
			c0.676,0,1.305-0.063,1.889-0.19c0.582-0.129,1.207-0.34,1.877-0.638v1.976c-0.594,0.283-1.193,0.483-1.801,0.602
			C115.2,111.036,114.509,111.093,113.729,111.093z M113.285,101.079c-0.771,0-1.393,0.245-1.857,0.733
			c-0.465,0.49-0.742,1.205-0.832,2.143h5.192c-0.015-0.945-0.242-1.66-0.683-2.146
			C114.664,101.323,114.057,101.079,113.285,101.079z"/>
		<path fill="#4E4E4E" d="M126.826,110.886l-0.486-1.593h-0.082c-0.553,0.696-1.107,1.171-1.666,1.422
			c-0.559,0.252-1.275,0.378-2.152,0.378c-1.123,0-2-0.304-2.631-0.909c-0.633-0.607-0.947-1.467-0.947-2.576
			c0-1.18,0.438-2.068,1.314-2.67c0.875-0.6,2.209-0.928,4.002-0.981l1.977-0.063v-0.609c0-0.73-0.172-1.277-0.512-1.641
			c-0.342-0.36-0.871-0.543-1.588-0.543c-0.586,0-1.147,0.088-1.688,0.26c-0.537,0.173-1.055,0.375-1.551,0.609l-0.787-1.736
			c0.621-0.324,1.301-0.571,2.039-0.74s1.434-0.253,2.09-0.253c1.455,0,2.553,0.317,3.295,0.95c0.74,0.636,1.111,1.631,1.111,2.99
			v7.706H126.826z M123.205,109.23c0.883,0,1.592-0.246,2.127-0.739c0.533-0.493,0.801-1.185,0.801-2.074v-0.993l-1.469,0.062
			c-1.145,0.041-1.977,0.232-2.498,0.574s-0.781,0.863-0.781,1.566c0,0.512,0.152,0.905,0.455,1.186
			C122.145,109.091,122.6,109.23,123.205,109.23z"/>
		<path fill="#4E4E4E" d="M138.372,107.627c0,1.117-0.407,1.975-1.222,2.571c-0.812,0.596-1.979,0.895-3.496,0.895
			c-1.523,0-2.748-0.231-3.672-0.692V108.3c1.345,0.62,2.597,0.931,3.754,0.931c1.498,0,2.246-0.45,2.246-1.354
			c0-0.29-0.084-0.531-0.248-0.725c-0.166-0.193-0.438-0.394-0.817-0.601s-0.907-0.44-1.583-0.704
			c-1.316-0.51-2.208-1.021-2.674-1.529c-0.467-0.512-0.698-1.174-0.698-1.986c0-0.979,0.396-1.739,1.185-2.281
			c0.789-0.541,1.863-0.812,3.224-0.812c1.345,0,2.616,0.271,3.815,0.815l-0.785,1.831c-1.234-0.51-2.272-0.766-3.113-0.766
			c-1.283,0-1.924,0.366-1.924,1.097c0,0.359,0.166,0.662,0.501,0.91c0.335,0.249,1.063,0.59,2.188,1.023
			c0.943,0.367,1.631,0.701,2.059,1.005c0.427,0.303,0.744,0.653,0.951,1.05S138.372,107.075,138.372,107.627z"/>
		<path fill="#4E4E4E" d="M149.876,105.145c0,1.869-0.479,3.328-1.438,4.377c-0.959,1.047-2.293,1.571-4.004,1.571
			c-1.067,0-2.014-0.241-2.834-0.725c-0.82-0.482-1.451-1.177-1.894-2.079c-0.442-0.903-0.662-1.951-0.662-3.145
			c0-1.855,0.478-3.304,1.429-4.346c0.951-1.041,2.293-1.562,4.023-1.562c1.654,0,2.965,0.533,3.931,1.599
			S149.876,103.338,149.876,105.145z M141.549,105.145c0,2.643,0.977,3.963,2.928,3.963c1.932,0,2.896-1.32,2.896-3.963
			c0-2.612-0.973-3.92-2.918-3.92c-1.021,0-1.76,0.338-2.219,1.015C141.777,102.914,141.549,103.883,141.549,105.145z"/>
		<path fill="#4E4E4E" d="M161.463,110.886h-2.441v-7.034c0-0.883-0.178-1.541-0.531-1.976c-0.355-0.435-0.92-0.651-1.691-0.651
			c-1.027,0-1.779,0.303-2.255,0.91c-0.478,0.606-0.714,1.624-0.714,3.051v5.7h-2.432V99.443h1.903l0.341,1.5h0.125
			c0.344-0.543,0.834-0.965,1.469-1.262c0.635-0.296,1.338-0.443,2.109-0.443c2.745,0,4.117,1.396,4.117,4.188V110.886z"/>
	</g>
	<g>
		<path fill="#4E4E4E" d="M55.571,80.313h6.922v8.644c-1.879,0.644-3.945,0.966-6.198,0.966c-2.472,0-4.382-0.717-5.731-2.15
			s-2.024-3.477-2.024-6.132c0-2.589,0.739-4.603,2.216-6.044c1.477-1.44,3.547-2.161,6.208-2.161c1.009,0,1.962,0.096,2.858,0.285
			c0.896,0.19,1.676,0.432,2.342,0.725l-1.371,3.4c-1.156-0.57-2.424-0.855-3.807-0.855c-1.265,0-2.243,0.411-2.934,1.233
			c-0.691,0.823-1.037,1.999-1.037,3.527c0,1.499,0.313,2.642,0.938,3.428c0.625,0.786,1.526,1.179,2.704,1.179
			c0.644,0,1.236-0.062,1.777-0.187v-2.512h-2.863V80.313z"/>
		<path fill="#4E4E4E" d="M78.026,81.344c0,2.677-0.737,4.739-2.21,6.188c-1.474,1.448-3.545,2.172-6.214,2.172h-5.188V73.665h5.551
			c2.574,0,4.561,0.658,5.961,1.975C77.326,76.957,78.026,78.857,78.026,81.344z M73.529,81.497c0-1.47-0.291-2.56-0.872-3.269
			c-0.581-0.709-1.464-1.063-2.649-1.063h-1.262v8.983h0.965c1.316,0,2.282-0.382,2.896-1.146
			C73.222,84.238,73.529,83.069,73.529,81.497z"/>
		<path fill="#4E4E4E" d="M85.991,80.313h6.922v8.644c-1.879,0.644-3.945,0.966-6.198,0.966c-2.472,0-4.382-0.717-5.731-2.15
			s-2.024-3.477-2.024-6.132c0-2.589,0.739-4.603,2.216-6.044c1.477-1.44,3.547-2.161,6.208-2.161c1.009,0,1.962,0.096,2.858,0.285
			c0.896,0.19,1.676,0.432,2.342,0.725l-1.371,3.4c-1.156-0.57-2.424-0.855-3.807-0.855c-1.265,0-2.243,0.411-2.934,1.233
			c-0.691,0.823-1.037,1.999-1.037,3.527c0,1.499,0.313,2.642,0.938,3.428c0.625,0.786,1.526,1.179,2.704,1.179
			c0.644,0,1.236-0.062,1.777-0.187v-2.512h-2.863V80.313z"/>
	</g>
	
		<radialGradient id="SVGID_5_" cx="-206.9297" cy="12.4229" r="20.1129" gradientTransform="matrix(0.498 0 0 -0.498 120.675 119.0193)" gradientUnits="userSpaceOnUse">
		<stop  offset="0" style="stop-color:#CCCCCC"/>
		<stop  offset="1" style="stop-color:#C0C0C0"/>
	</radialGradient>
	<path fill="url(#SVGID_5_)" d="M8.91,124h6.791c1.607,0,3.604-1.128,4.432-2.511l5.72-9.52c0.677-1.396,0.653-3.426-0.119-4.713
		l-3.378-5.592L8.91,124z"/>
	
		<radialGradient id="SVGID_6_" cx="-218.9814" cy="22.6357" r="27.6567" gradientTransform="matrix(0.498 0 0 -0.498 120.675 119.0193)" gradientUnits="userSpaceOnUse">
		<stop  offset="0" style="stop-color:#A0A0A0"/>
		<stop  offset="1" style="stop-color:#7B7B7B"/>
	</radialGradient>
	<path fill="url(#SVGID_6_)" d="M16.209,96.514l-15.101,25.25C0.524,123.011,1.131,124,2.629,124H8.91l13.446-22.335L16.21,91.492
		C17.039,92.87,17.039,95.13,16.209,96.514"/>
	
		<radialGradient id="SVGID_7_" cx="-209.5303" cy="62.3174" r="40.5378" gradientTransform="matrix(0.498 0 0 -0.498 120.675 119.0193)" gradientUnits="userSpaceOnUse">
		<stop  offset="0" style="stop-color:#848484"/>
		<stop  offset="1" style="stop-color:#838383"/>
	</radialGradient>
	<path fill="url(#SVGID_7_)" d="M2.629,64c-1.613,0-2.254,1.133-1.424,2.511l24.529,40.745c0.772,1.288,0.795,3.317,0.119,4.713
		l5.963-9.925L8.914,64H2.629z"/>
	
		<radialGradient id="SVGID_8_" cx="-197.4658" cy="72.2812" r="33.0572" gradientTransform="matrix(0.498 0 0 -0.498 120.675 119.0193)" gradientUnits="userSpaceOnUse">
		<stop  offset="0" style="stop-color:#626262"/>
		<stop  offset="1" style="stop-color:#474747"/>
	</radialGradient>
	<path fill="url(#SVGID_8_)" d="M8.914,64l22.903,38.045l3.321-5.529c0.83-1.386,0.83-3.646,0-5.023l-15.004-24.98
		C19.305,65.133,17.308,64,15.701,64H8.914z"/>
</g>
<g>
	
		<radialGradient id="SVGID_9_" cx="-206.6123" cy="-114.084" r="20.1125" gradientTransform="matrix(0.498 0 0 -0.498 120.675 119.0193)" gradientUnits="userSpaceOnUse">
		<stop  offset="0" style="stop-color:#FFCF4F"/>
		<stop  offset="1" style="stop-color:#F4C236"/>
	</radialGradient>
	<path fill="url(#SVGID_9_)" d="M9.068,187h6.791c1.607,0,3.604-1.128,4.432-2.511l5.72-9.52c0.677-1.396,0.653-3.426-0.119-4.713
		l-3.378-5.592L9.068,187z"/>
	
		<radialGradient id="SVGID_10_" cx="-218.6631" cy="-103.8701" r="27.6563" gradientTransform="matrix(0.498 0 0 -0.498 120.675 119.0193)" gradientUnits="userSpaceOnUse">
		<stop  offset="0" style="stop-color:#08A960"/>
		<stop  offset="1" style="stop-color:#07914B"/>
	</radialGradient>
	<path fill="url(#SVGID_10_)" d="M16.368,159.514l-15.102,25.25C0.683,186.011,1.289,187,2.787,187h6.281l13.446-22.335
		l-6.146-10.173C17.197,155.87,17.197,158.13,16.368,159.514"/>
	
		<radialGradient id="SVGID_11_" cx="-209.2129" cy="-64.1885" r="40.5378" gradientTransform="matrix(0.498 0 0 -0.498 120.675 119.0193)" gradientUnits="userSpaceOnUse">
		<stop  offset="0" style="stop-color:#567FC0"/>
		<stop  offset="1" style="stop-color:#557FC0"/>
	</radialGradient>
	<path fill="url(#SVGID_11_)" d="M2.787,127c-1.613,0-2.254,1.133-1.424,2.511l24.529,40.745c0.772,1.288,0.795,3.317,0.119,4.713
		l5.963-9.925L9.072,127H2.787z"/>
	
		<radialGradient id="SVGID_12_" cx="-197.1484" cy="-54.2246" r="33.0572" gradientTransform="matrix(0.498 0 0 -0.498 120.675 119.0193)" gradientUnits="userSpaceOnUse">
		<stop  offset="0" style="stop-color:#E14C40"/>
		<stop  offset="1" style="stop-color:#CD392D"/>
	</radialGradient>
	<path fill="url(#SVGID_12_)" d="M9.072,127l22.903,38.045l3.321-5.529c0.83-1.386,0.83-3.646,0-5.023l-15.004-24.981
		C19.463,128.133,17.467,127,15.86,127H9.072z"/>
	
		<text id="title_1_" editable="simple" transform="matrix(1 0 0 1 115.3018 165.5967)" fill="#E7E8E8" enable-background="new    " font-family="'OpenSans-Semibold'" font-size="30.7603">SSU</text>
	<g id="GDG_1_">
		<g>
			<path fill="#E7E8E8" d="M96.584,162.574"/>
			<path fill="#E7E8E8" d="M56.933,152.988h9.418v11.771c-2.558,0.877-5.366,1.313-8.438,1.313c-3.36,0-5.959-0.975-7.798-2.925
				c-1.84-1.95-2.754-4.737-2.754-8.353c0-3.521,1.002-6.259,3.016-8.222c2.012-1.965,4.827-2.933,8.451-2.933
				c1.375,0,2.668,0.125,3.884,0.386c1.226,0.257,2.291,0.581,3.197,0.976l-1.875,4.626c-1.569-0.774-3.298-1.162-5.179-1.162
				c-1.715,0-3.05,0.568-3.99,1.683c-0.948,1.121-1.41,2.716-1.41,4.801c0,2.04,0.421,3.596,1.279,4.666
				c0.844,1.072,2.067,1.599,3.672,1.599c0.878,0,1.687-0.077,2.419-0.251v-3.414h-3.893V152.988L56.933,152.988z"/>
			<path fill="#E7E8E8" d="M81.979,154.607c0-2.006-0.395-3.485-1.183-4.454c-0.789-0.96-1.999-1.444-3.609-1.444h-1.714v12.227
				h1.313c1.798,0,3.111-0.521,3.941-1.564C81.565,158.341,81.979,156.744,81.979,154.607 M88.098,154.399
				c0,3.638-0.994,6.445-3.006,8.416c-2,1.971-4.82,2.953-8.451,2.953H69.58v-21.825h7.552c3.498,0,6.202,0.899,8.11,2.688
				C87.15,148.42,88.098,151.012,88.098,154.399"/>
			<path fill="#E7E8E8" d="M99.55,152.988h9.426v11.771c-2.56,0.877-5.373,1.313-8.436,1.313c-3.362,0-5.962-0.975-7.802-2.925
				c-1.832-1.95-2.751-4.737-2.751-8.353c0-3.521,1.002-6.259,3.014-8.222c2.007-1.965,4.828-2.933,8.452-2.933
				c1.368,0,2.668,0.125,3.893,0.386c1.21,0.257,2.274,0.581,3.181,0.976l-1.867,4.626c-1.57-0.774-3.299-1.162-5.18-1.162
				c-1.722,0-3.05,0.568-3.995,1.683c-0.935,1.121-1.406,2.716-1.406,4.801c0,2.04,0.422,3.596,1.272,4.666
				c0.851,1.072,2.074,1.599,3.678,1.599c0.879,0,1.689-0.077,2.423-0.251v-3.414H99.55V152.988L99.55,152.988z"/>
		</g>
	</g>
</g>
</svg>
